<svg width="75" height="27" viewBox="0 0 75 27" fill="none" xmlns="http://www.w3.org/2000/svg">
<path d="M9.17959e-05 25.6389C0.491319 23.5314 0.744856 21.3922 0.744856 19.348V8.01812C0.744856 5.98983 0.491319 3.85061 9.17959e-05 1.72724H7.28927C6.7822 3.85061 6.54451 5.98983 6.54451 8.01812V21.6457C9.06403 21.5665 11.4885 21.2179 14.2932 20.5365L13.7228 25.6389H9.17959e-05ZM15.191 25.6389C15.6664 24.0068 15.8882 22.3746 15.8882 20.8376V14.5942C15.8882 11.9004 15.6981 9.63442 14.9533 7.44766C17.1559 7.35259 19.4536 7.09905 21.3868 6.75044V20.8376C21.3868 22.3746 21.5928 24.0068 22.0523 25.6389H15.191ZM15.2544 2.86816C15.2544 1.07756 16.3953 2.6267e-05 18.487 2.6267e-05C20.547 2.6267e-05 21.6403 1.07756 21.6403 2.86816C21.6403 4.72215 20.547 5.78383 18.487 5.78383C16.3953 5.78383 15.2544 4.72215 15.2544 2.86816ZM34.0767 25.6389C34.5204 24.0226 34.7581 22.3746 34.7581 20.8376V12.867C34.7581 11.013 33.95 10.4743 32.508 10.4743C31.7157 10.4743 30.8758 10.6327 30.0835 10.9972V20.8376C30.0835 22.3746 30.2895 24.0068 30.7491 25.6389H23.8877C24.3631 24.0068 24.6008 22.3746 24.6008 20.8376V13.691C24.6008 11.7102 24.4107 9.6978 23.6501 7.43182C25.6942 7.3209 27.5165 7.08321 29.5765 6.75044C29.8142 7.73289 30.0043 8.87381 30.0677 10.0464C30.9075 8.03397 32.7774 6.75044 35.3603 6.75044C38.6721 6.75044 40.2409 8.76288 40.2409 12.3282V20.8376C40.2409 22.3746 40.4785 24.0226 40.9064 25.6389H34.0767ZM48.8698 20.8376C48.8698 22.3746 49.0599 24.0068 49.5353 25.6389H42.674C43.1493 24.0068 43.3712 22.3746 43.3712 20.8376V5.73629C43.3712 4.04077 43.181 2.37693 42.4363 0.824019C44.6389 0.713097 46.683 0.570484 48.8698 0.285255V20.8376ZM48.8698 15.4816C51.1674 12.249 52.752 9.88795 54.0356 7.14659H60.4849L54.4951 15.0379L56.4283 18.2071C58.0446 20.8693 59.5183 23.0402 61.4357 25.3537C59.2648 25.4012 56.4442 25.6389 54.7645 26.0509L48.8698 15.4816ZM67.238 26.0351C65.3048 26.0351 63.3241 25.6865 61.5652 24.8466L62.0722 20.172C63.5459 21.8042 65.3048 22.9292 67.4599 22.9292C68.791 22.9292 69.4882 22.5172 69.4882 21.5031C69.4882 20.6791 69.0762 19.9502 67.6976 19.0945L65.3207 17.6208C62.7853 16.0521 61.5652 14.3407 61.5652 12.0747C61.5652 8.84211 64.0055 6.75044 68.7117 6.75044C70.4548 6.75044 72.3088 7.03567 73.8458 7.65366L72.9426 12.249C71.6432 10.7278 70.0745 9.82457 68.3473 9.82457C67.1113 9.82457 66.5408 10.2841 66.5408 11.0447C66.5408 11.8212 66.9053 12.4233 68.4107 13.3582L70.6766 14.8002C73.2912 16.4482 74.4163 18.0804 74.4163 20.4097C74.4163 23.9434 71.9126 26.0351 67.238 26.0351Z" fill="black"/>
</svg>
