<svg width="126" height="100" viewBox="0 0 126 100" fill="none" xmlns="http://www.w3.org/2000/svg">
<g clip-path="url(#clip0_3478_266)">
<mask id="mask0_3478_266" style="mask-type:luminance" maskUnits="userSpaceOnUse" x="0" y="0" width="126" height="100">
<path d="M126 0H0V100H126V0Z" fill="white"/>
</mask>
<g mask="url(#mask0_3478_266)">
<path d="M102.951 99.979C109.262 99.979 112.432 97.2411 112.432 92.9627C112.432 89.9587 110.873 87.9771 107.422 85.9464L104.34 84.1398C102.367 82.9844 101.554 82.1091 101.554 80.9327C101.554 79.9174 102.263 79.2312 104.229 79.2312C106.668 79.2312 108.892 80.3025 110.607 82.2492L111.782 76.6543C109.727 75.8421 107.289 75.4779 104.953 75.4779C98.6201 75.4779 95.5607 78.1948 95.5607 82.1091C95.5607 84.8891 97.1052 86.9967 100.46 88.9224L103.823 90.848C105.833 92.0034 106.476 92.9977 106.476 94.1531C106.476 95.5116 105.559 96.2188 103.498 96.2188C100.719 96.2188 98.2137 94.9024 96.0706 92.7737L95.4498 98.4525C97.7186 99.5099 100.327 99.972 102.943 99.972M70.3311 67.7544C71.3361 69.8621 71.5948 72.0328 71.5948 74.3646V93.3899C71.5948 95.3365 71.2918 97.4092 70.6563 99.4749H78.9996C78.3567 97.4092 78.098 95.3365 78.098 93.3899V67.0472C75.445 67.4113 72.9841 67.6354 70.3311 67.7544ZM78.1645 86.6186L86.7444 100C88.8875 99.4959 92.2056 99.1878 94.8143 99.1107C92.1169 96.2118 90.0181 93.4529 87.7272 90.1058L84.9634 86.0724L93.654 75.9961H85.8206C83.8918 79.4623 81.6674 82.3612 78.1571 86.6256M59.889 99.4749H68.2176C67.6411 97.4302 67.316 95.3155 67.316 93.3899V82.8234C67.316 78.0548 65.1581 75.485 60.6132 75.485C57.103 75.485 54.4721 77.0885 53.1419 79.6653C53.0754 78.1668 52.8241 76.7664 52.5211 75.485C50.0603 75.9121 47.8359 76.2132 45.3898 76.3602C46.3948 79.3012 46.6535 81.8991 46.6535 84.5319V93.3969C46.6535 95.3435 46.3579 97.4162 45.7149 99.4819H54.0583C53.4375 97.4162 53.1567 95.3435 53.1567 93.3969V80.8627C54.4869 80.2535 55.8984 79.9874 57.2655 79.9874C59.5786 79.9874 60.798 80.7787 60.798 83.4536V93.3899C60.798 95.3365 60.4802 97.4232 59.8816 99.4749M34.9698 70.3523C34.9698 72.523 36.3813 73.7974 38.9309 73.7974C41.4804 73.7974 42.7811 72.516 42.7811 70.3523C42.7811 68.1885 41.4361 66.9631 38.9309 66.9631C36.4257 66.9631 34.9698 68.2376 34.9698 70.3523ZM34.9329 99.4749H43.2762C42.6555 97.4092 42.3746 95.3365 42.3746 93.4109V75.485C39.9803 75.9331 37.2607 76.2552 34.6077 76.3742C35.6128 79.2102 35.8714 82.0741 35.8714 85.4212V93.4109C35.8714 95.3365 35.5684 97.4092 34.9329 99.4749ZM14.2334 99.4749H32.6198L33.3884 93.5929C29.3238 94.4682 25.8357 94.8884 22.089 94.9724V76.9064C22.089 74.3296 22.4068 71.6127 23.0719 68.9168H14.2334C14.8985 71.6127 15.2384 74.3296 15.2384 76.9064V91.5062C15.2384 94.0831 14.8985 96.8 14.2334 99.4749Z" fill="black"/>
</g>
<path d="M60.598 0H32.7007V26.4337H60.598V0Z" fill="#009982"/>
<path d="M27.8974 30.4321H0V56.8659H27.8974V30.4321Z" fill="#009982"/>
<path d="M93.2992 30.4321H65.4019V56.8659H93.2992V30.4321Z" fill="#009982"/>
<path d="M126 30.4321H98.1025V56.8659H126V30.4321Z" fill="#009982"/>
</g>
<defs>
<clipPath id="clip0_3478_266">
<rect width="126" height="100" fill="white"/>
</clipPath>
</defs>
</svg>
